<svg xmlns="http://www.w3.org/2000/svg" xmlns:xlink="http://www.w3.org/1999/xlink" width="116" height="156" viewBox="0 0 116 156">
  <defs>
    <style>
      .cls-1 {
        fill: #fff;
        fill-rule: evenodd;
        filter: url(#filter);
      }
    </style>
    <filter id="filter" x="2760" y="5005" width="116" height="156" filterUnits="userSpaceOnUse">
      <feFlood result="flood" flood-color="#dbd5b1"/>
      <feComposite result="composite" operator="in" in2="SourceGraphic"/>
      <feBlend result="blend" in2="SourceGraphic"/>
    </filter>
  </defs>
  <path id="mark_sea.svg" class="cls-1" d="M2818.57,5005c21.66,0,36.73,13.28,38.73,15a2.1,2.1,0,0,0,1.53.7,6.288,6.288,0,0,0,3.39-2.22c3.94-4.28,7.22-6.91,13.78-4.93-5.58,8.22-2.63,12.82-6.24,18.08s-15.75,4.11-20.67,17.09c-1.19,3.14-6.23-5.26-5.57-10.85s3.28-6.9,3.93-10.51-9.68-11.84-28.88-11.84c-21.98,0-28.22,19.07-28.22,24.33h7.88c0.44-5.7,6.1-19.25,20.34-20.06,13.57-.76,15.27,5.91,17.4,5.25s3.28-1.14,4.92-.64a3.628,3.628,0,0,1,2.13,2.46s-3.61,2.96-4.59,6.25-3.12,9.53-3.12,9.53l-3.28-1.31s0.97-8.71.97-10.09a2.856,2.856,0,0,0-.98-2.33c-8.23-6.7-22.15.68-22.15,10.94h7.39s1.97-6.41,6.24-6.41a8.786,8.786,0,0,0,1.97,2.3s-3.45,3.62-3.45,8.22a8.54,8.54,0,0,0,3.77,7.23s-2.34,2.42-3.28,3.29c-0.65.6-5.1-2.9-5.43-6.25h-7.21s2.97,10.85,12.97,11.02a24.149,24.149,0,0,0,5.94-.46,2.423,2.423,0,0,0,1.69-2.3c0.08-1.02.31-5.96,0.31-5.96h3.55a8.869,8.869,0,0,0,2.46,6.25c2.62,2.47,7.88,2.96,7.88,2.96s1.14,4.6-1.81,5.09c-1.33.23-4.43,0.99-7.38-.82-3.45,2.14-5.59,3.95-13.13,3.95-11.24,0-23.13-6.63-23.93-19.4h-7.43c0.84,8.22,6.14,24.33,31.36,24.33,31.66,0,50.21,17.37,50.21,40.44,0,33.48-24.78,47.67-47.91,47.67s-38.23-13.15-43.97-21.53c-0.83,1.48-2.47,2.46-5.09,3.94,0,0-4.92,1.31-6.57,3.45s-1.64,7.89-1.64,7.89-6.73.66-7.38-9.7a14.038,14.038,0,0,1,2.79-8.05c1.97-2.8,6.23-3.45,9.35-9.04s-0.65-6.74,5.09-14.14c1.64-1.81,2.79-3.28,6.23-3.28h20.76l3.59-11.68s-3.83-5.92-8.43-7.23c-0.66-1.48,1.97-3.62,3.44-5.1s0.88,1.98,13.95,1.98c4.76-.11,15.26,1.09,15.26,5.42,0,0.99-2.63,1.97-2.14,3.78,0,0-4.96-1.43-6.11,1.36l5.46,11.47h5.25c4.87,0,5.74-5.6,2.95-8.23,5.2-3.94,11.32,2.86,11.32,8.23a8.011,8.011,0,0,1-4.09,7.39c-2.69,1.48-6.5,1.23-11.31,1.23,0,0,5.23,9.25,5.78,9.19a7.366,7.366,0,0,0,2.41-.83c1.3-.71,2.37,2.94,2.37,2.94a14.78,14.78,0,0,1-7.71,7.97,22.449,22.449,0,0,1-11.59,2.08s-1.33-3.34-.99-3.51c1.52-.76,4.05-2.32,3.96-3.01-0.47-3.74-6.09-14.83-6.09-14.83h-9.82s-3.13,9.24-3.93,11.43a17.278,17.278,0,0,0-.69,2.72s0.79,1.08,1.18,1.69a12.564,12.564,0,0,0,4.1,3.26c0.88,0.55-.11,3.57-1.1,4.23,0,0-4.04.37-10.82-4.01s-8.91-8.33-8.91-8.33a23.352,23.352,0,0,0,2.74-2.85c0.2-.39,1.04.22,2.02,0.44a3.043,3.043,0,0,0,1.27.26c1.12-.35,4.01-8.84,4.01-8.84h-11.88a7.376,7.376,0,0,0-3.69,6.5c0.22,4.38,6.13,11.81,12.25,15.86s13.78,5.94,21.88,5.94c23.84,0,33.55-18.85,33.55-34.13,0-12.71-13.92-29.05-31.15-29.05-31.28,0-53.32-11.61-53.32-39.99C2769.19,5022.1,2793.47,5005,2818.57,5005ZM2813,5110.54h6.88l-3.93-8.97Z" transform="translate(-2760 -5005)"/>
</svg>
