<?xml version="1.0" encoding="UTF-8"?>
<svg width="185px" height="125px" viewBox="0 0 185 125" version="1.1" xmlns="http://www.w3.org/2000/svg" xmlns:xlink="http://www.w3.org/1999/xlink">
    <!-- Generator: Sketch 45.2 (43514) - http://www.bohemiancoding.com/sketch -->
    <title>Logo</title>
    <desc>Created with Sketch.</desc>
    <defs></defs>
    <g id="Page-1" stroke="none" stroke-width="1" fill="none" fill-rule="evenodd">
        <g id="Desktop-HD-Copy" transform="translate(-630.000000, -37.000000)" fill="#429671">
            <g id="Logo" transform="translate(630.000000, 37.000000)">
                <path d="M21.0403742,85.8859597 L24.7397806,85.8859597 C25.7802387,85.8859597 26.5894839,85.0767145 26.5894839,84.0362565 L26.5894839,80.1056371 C26.5894839,72.8224306 20.5779484,66.8108952 13.2947419,66.8108952 C6.01153548,66.8108952 0,72.8224306 0,80.1056371 C0,83.8050435 19.190671,109.238463 19.190671,110.741347 C19.190671,113.978327 16.5317226,116.637276 13.2947419,116.637276 C10.0577613,116.637276 7.3988129,113.978327 7.3988129,110.741347 L7.3988129,106.810727 C7.3988129,105.770269 6.58956774,104.961024 5.54910968,104.961024 L1.84970323,104.961024 C0.809245161,104.961024 0,105.770269 0,106.810727 L0,110.741347 C0,118.024553 6.01153548,124.036089 13.2947419,124.036089 C20.5779484,124.036089 26.5894839,118.024553 26.5894839,110.741347 C26.5894839,107.04194 7.3988129,81.608521 7.3988129,80.1056371 C7.3988129,76.8686565 10.0577613,74.2097081 13.2947419,74.2097081 C16.5317226,74.2097081 19.190671,76.8686565 19.190671,80.1056371 L19.190671,84.0362565 C19.190671,85.0767145 19.9999161,85.8859597 21.0403742,85.8859597 Z M57.2123484,116.529693 L57.2123484,104.961024 C57.2123484,101.146011 55.5938581,97.7934242 53.0505161,95.3656887 C55.5938581,92.9379532 57.2123484,89.4697597 57.2123484,85.6547468 L57.2123484,79.9001145 C57.2123484,78.8596565 56.4031032,78.0504113 55.3626452,78.0504113 L51.6632387,78.0504113 C50.6227806,78.0504113 49.8135355,78.8596565 49.8135355,79.9001145 L49.8135355,85.6547468 C49.8135355,89.0073339 47.1545871,91.6662823 43.802,91.6662823 L37.906071,91.6662823 L37.906071,68.6605984 C37.906071,67.6201403 37.0968258,66.8108952 36.0563677,66.8108952 L32.3569613,66.8108952 C31.3165032,66.8108952 30.5072581,67.6201403 30.5072581,68.6605984 L30.5072581,122.186385 C30.5072581,123.111237 31.3165032,124.036089 32.3569613,124.036089 L36.0563677,124.036089 C37.0968258,124.036089 37.906071,123.111237 37.906071,122.186385 L37.906071,99.0650952 L43.802,99.0650952 C47.1545871,99.0650952 49.8135355,101.724044 49.8135355,104.961024 L49.8135355,122.186385 C49.8135355,123.111237 50.6227806,124.036089 51.6632387,124.036089 L55.3626452,124.036089 C55.4104981,124.036089 55.4578619,124.034132 55.5046805,124.03031 L65.7323802,124.03031 L65.7323802,124.03031 C67.8036184,124.03031 69.4826887,122.351239 69.4826887,120.280001 C69.4826887,118.208763 67.8036184,116.529693 65.7323802,116.529693 L57.2123484,116.529693 Z M103.895797,73.9101009 L103.895797,121.957878 C103.895797,122.885617 104.828624,123.813356 105.761451,123.813356 L109.492759,123.813356 C110.54219,123.813356 111.358413,122.885617 111.358413,121.957878 L111.358413,98.7643938 L117.42179,98.7643938 C124.767803,98.7643938 130.831179,92.734088 130.831179,85.3121732 L130.831179,79.7457371 C130.831179,72.4397897 124.767803,66.4094839 117.42179,66.4094839 L105.761451,66.4094839 C105.651214,66.4094839 105.540976,66.4208206 105.432279,66.4425371 C105.268678,66.420737 105.101743,66.4094839 104.93218,66.4094839 L76.5053699,66.4094839 C74.4341317,66.4094839 72.7550614,68.0885542 72.7550614,70.1597924 C72.7550614,72.2310306 74.4341317,73.9101009 76.5053699,73.9101009 L103.895797,73.9101009 Z M68.8147403,79.8524045 L68.8147403,110.915959 C68.8147403,112.02893 68.0054952,112.894573 66.9650371,112.894573 L63.2656306,112.894573 C62.2251726,112.894573 61.4159274,112.02893 61.4159274,110.915959 L61.4159274,79.8524045 C61.4159274,78.739434 62.2251726,77.8737903 63.2656306,77.8737903 L66.9650371,77.8737903 C67.8898887,77.8737903 68.8147403,78.739434 68.8147403,79.8524045 Z M65.1252578,73.9214669 C63.0766512,73.9214669 61.4159274,72.2607431 61.4159274,70.2121365 L61.4159274,70.1188153 C61.4159274,68.0702086 63.0766512,66.4094849 65.1252578,66.4094849 C67.1738644,66.4094849 68.8345882,68.0702086 68.8345882,70.1188153 L68.8345882,70.2121365 C68.8345882,72.2607431 67.1738644,73.9214669 65.1252578,73.9214669 Z M123.430076,85.4813371 C123.430076,88.8339242 120.771127,91.4928726 117.534147,91.4928726 L111.522611,91.4928726 L111.522611,74.0362984 L117.534147,74.0362984 C120.771127,74.0362984 123.430076,76.6952468 123.430076,79.9322274 L123.430076,85.4813371 Z M86.2810543,77.8737903 C93.6270676,77.8737903 99.6904438,83.9040961 99.6904438,91.2100435 L99.6904438,96.7764797 C99.6904438,104.198394 93.6270676,110.2287 86.2810543,110.2287 L80.2176781,110.2287 L80.2176781,122.182668 C80.2176781,123.110407 79.4014544,124.038147 78.3520239,124.038147 L74.6207156,124.038147 C73.6878885,124.038147 72.7550614,123.110407 72.7550614,122.182668 L72.7550614,79.729269 C72.7550614,78.6855623 73.6878885,77.8737903 74.6207156,77.8737903 L86.2810543,77.8737903 Z M92.2893404,96.9456435 L92.2893404,91.3965339 C92.2893404,88.1595532 89.630392,85.5006048 86.3934114,85.5006048 L80.3818759,85.5006048 L80.3818759,102.957179 L86.3934114,102.957179 C89.630392,102.957179 92.2893404,100.298231 92.2893404,96.9456435 Z M152.330768,74.6111194 C153.371226,74.6111194 154.180471,73.8018742 154.180471,72.7614161 L154.180471,69.0620097 C154.180471,68.0215516 153.371226,67.2123065 152.330768,67.2123065 L138.5736,67.2123065 C136.492684,67.2123065 134.874194,68.8307968 134.874194,70.9117129 L134.874194,120.738094 C134.874194,122.703403 136.492684,124.4375 138.5736,124.4375 L163.570284,124.4375 C164.610742,124.4375 165.419987,123.628255 165.419987,122.587797 L165.419987,118.88839 C165.419987,117.847932 164.610742,117.038687 163.570284,117.038687 L142.273006,117.038687 L142.273006,99.4665065 L152.330768,99.4665065 C153.371226,99.4665065 154.180471,98.6572613 154.180471,97.6168032 L154.180471,93.9173968 C154.180471,92.8769387 153.371226,92.0676935 152.330768,92.0676935 L142.273006,92.0676935 L142.273006,74.6111194 L152.330768,74.6111194 Z M184.745532,80.5070484 L184.745532,86.0561581 C184.745532,89.871171 183.242648,93.3393645 180.699306,95.7671 C183.242648,98.1948355 184.745532,101.547423 184.745532,105.362435 L184.745532,122.587797 C184.745532,123.512648 183.936287,124.4375 182.895829,124.4375 L179.196423,124.4375 C178.155965,124.4375 177.346719,123.512648 177.346719,122.587797 L177.346719,105.362435 C177.346719,102.125455 174.687771,99.4665065 171.45079,99.4665065 L165.554861,99.4665065 L165.554861,111.348281 C165.554861,112.273132 164.63001,113.197984 163.705158,113.197984 L160.005752,113.197984 C158.965294,113.197984 158.156048,112.273132 158.156048,111.348281 L158.156048,70.9117129 C158.156048,68.8307968 159.774539,67.2123065 161.855455,67.2123065 L171.45079,67.2123065 C178.849603,67.2123065 184.745532,73.2238419 184.745532,80.5070484 Z M177.574721,85.4813371 L177.574721,79.9322274 C177.574721,76.6952468 174.915773,74.0362984 171.678792,74.0362984 L165.782863,74.0362984 L165.782863,91.4928726 L171.678792,91.4928726 C174.915773,91.4928726 177.574721,88.8339242 177.574721,85.4813371 Z M68.6092177,16.2330726 L64.9098113,16.2330726 C63.8693532,16.2330726 63.0601081,17.0423177 63.0601081,18.0827758 L63.0601081,43.9914661 C63.0601081,47.3440532 60.4011597,50.0030016 57.164179,50.0030016 C53.8115919,50.0030016 51.1526435,47.3440532 51.1526435,43.9914661 L51.1526435,2.02632419 C51.1526435,0.985866129 50.3433984,0.176620968 49.3029403,0.176620968 L45.6035339,0.176620968 C44.6786823,0.176620968 43.7538306,0.985866129 43.7538306,2.02632419 L43.7538306,43.9914661 C43.7538306,51.390279 49.7653661,57.4018145 57.164179,57.4018145 C64.4473855,57.4018145 70.458921,51.390279 70.458921,43.9914661 L70.458921,18.0827758 C70.458921,17.0423177 69.6496758,16.2330726 68.6092177,16.2330726 Z M167.526594,7.97684516 C168.567052,7.97684516 169.376297,7.1676 169.376297,6.12714194 L169.376297,2.42773548 C169.376297,1.38727742 168.567052,0.578032258 167.526594,0.578032258 L153.769426,0.578032258 C151.68851,0.578032258 150.070019,2.19652258 150.070019,4.27743871 L150.070019,42.0614806 C150.070019,44.0267903 151.68851,45.7608871 153.769426,45.7608871 L167.526594,45.7608871 C168.567052,45.7608871 169.376297,44.9516419 169.376297,43.9111839 L169.376297,40.2117774 C169.376297,39.1713194 168.567052,38.3620742 167.526594,38.3620742 L157.468832,38.3620742 L157.468832,27.2124742 L167.526594,27.2124742 C168.567052,27.2124742 169.376297,26.403229 169.376297,25.362771 L169.376297,21.6633645 C169.376297,20.6229065 168.567052,19.8136613 167.526594,19.8136613 L157.468832,19.8136613 L157.468832,7.97684516 L167.526594,7.97684516 Z M78.7733296,0.459346441 C79.2571999,0.531740894 79.7108489,0.696571138 80.115731,0.935291623 C81.2285427,1.17092629 82.2078431,1.93800081 82.6659981,3.0719743 L82.6659981,3.0719743 L96.541021,37.413861 L96.541021,3.75030852 L96.541021,3.75030852 C96.541021,1.67907032 98.2200913,-2.21320293e-14 100.291329,-2.20052026e-14 C102.362568,-2.18783758e-14 104.041638,1.67907032 104.041638,3.75030852 L104.041638,3.75030852 L104.041638,53.1803181 L104.041638,53.1803181 C104.041638,55.2515563 102.362568,56.9306267 100.291329,56.9306267 C99.5877706,56.9306267 98.9294612,56.7368909 98.366839,56.3998574 C97.2099623,56.1919876 96.1820619,55.4124704 95.7092304,54.2421713 L81.964017,20.2215744 L81.964017,53.5981936 C81.964017,55.6694318 80.2849467,57.3485021 78.2137085,57.3485021 C76.1424703,57.3485021 74.4634,55.6694318 74.4634,53.5981936 L74.4634,8.02822581 L61.4175331,8.02822581 L61.4175331,8.02822581 C59.3114464,8.02822581 57.6041258,6.32090522 57.6041258,4.21481855 L57.6041258,4.21481855 C57.6041258,2.10873187 59.3114464,0.40141129 61.4175331,0.40141129 L78.1074619,0.40141129 C78.3346033,0.40141129 78.5571063,0.421270188 78.7733296,0.459346441 Z M32.3794403,7.62486828 L32.3794403,44.1070726 C32.3794403,47.3440532 29.8360984,50.0030016 26.4835113,50.0030016 C23.2465306,50.0030016 20.5875823,47.3440532 20.5875823,44.1070726 L20.5875823,39.8296339 C20.5875823,38.7891758 19.7783371,37.9799306 18.737879,37.9799306 L15.0384726,37.9799306 C14.113621,37.9799306 13.1887694,38.7891758 13.1887694,39.8296339 L13.1887694,44.1070726 C13.1887694,51.390279 19.2003048,57.4018145 26.4835113,57.4018145 C33.8823242,57.4018145 39.7782532,51.390279 39.7782532,44.1070726 L39.7782532,2.02632419 C39.7782532,0.985866129 38.9690081,0.176620968 37.92855,0.176620968 L36.3984527,0.176620968 C36.1942132,0.142181171 35.9843659,0.124251237 35.7703308,0.124251237 L35.7703308,0.124251237 L28.4720426,0.124251237 C26.4008044,0.124251237 24.7217341,1.80332156 24.7217341,3.87455976 L24.7217341,3.87455976 L24.7217341,3.87455976 C24.7217341,5.94579796 26.4008044,7.62486828 28.4720426,7.62486828 L28.4720426,7.62486828 L32.3794403,7.62486828 Z M122.377952,0.249221392 C122.614754,0.201605412 122.859745,0.176620968 123.11057,0.176620968 L142.091439,0.176620968 C144.132773,0.176620968 145.787601,1.83144908 145.787601,3.872783 L145.787601,3.872783 L145.787601,3.872783 C145.787601,5.91411693 144.132773,7.56894504 142.091439,7.56894504 L142.091439,7.56894504 L123.11057,7.56894504 L123.11057,7.56894504 C122.747783,7.56894504 122.397203,7.51667781 122.06595,7.41926276 C121.782004,7.52019486 121.496269,7.57543387 121.216576,7.57543387 C117.979595,7.57543387 115.320647,10.1187758 115.320647,13.4713629 L115.320647,44.1070726 C115.320647,47.3440532 117.979595,50.0030016 121.216576,50.0030016 C124.453556,50.0030016 127.112505,47.3440532 127.112505,44.1070726 L127.112505,32.1996081 L123.066279,32.1996081 C122.025821,32.1996081 121.216576,31.3903629 121.216576,30.4655113 L121.216576,26.7661048 C121.216576,25.7256468 122.025821,24.9164016 123.066279,24.9164016 L132.661615,24.9164016 C133.702073,24.9164016 134.511318,25.7256468 134.511318,26.7661048 L134.511318,44.1070726 C134.511318,51.390279 128.499782,57.2862081 121.216576,57.2862081 C113.933369,57.2862081 107.921834,51.390279 107.921834,44.1070726 L107.921834,13.4713629 C107.921834,6.07255 113.933369,0.176620968 121.216576,0.176620968 C121.641454,0.176620968 122.027776,0.201800364 122.377952,0.249221392 Z M167.873413,50.0030016 C168.913871,50.0030016 169.723116,50.8122468 169.723116,51.8527048 L169.723116,55.5521113 C169.723116,56.4769629 168.913871,57.4018145 167.873413,57.4018145 L142.189513,57.4018145 C140.108597,57.4018145 138.490106,55.6677177 138.490106,53.7024081 L138.490106,14.0686629 C138.490106,13.0282048 139.299352,12.2189597 140.33981,12.2189597 L144.039216,12.2189597 C144.964068,12.2189597 145.888919,13.0282048 145.888919,14.0686629 L145.888919,50.0030016 L167.873413,50.0030016 Z" id="Combined-Shape"></path>
            </g>
        </g>
    </g>
</svg>