<?xml version="1.0" encoding="UTF-8"?>
<svg width="138px" height="186px" viewBox="0 0 138 186" version="1.1" xmlns="http://www.w3.org/2000/svg" xmlns:xlink="http://www.w3.org/1999/xlink">
    <title>mark_sea</title>
    <g id="Homepage" stroke="none" stroke-width="1" fill="none" fill-rule="evenodd">
        <g transform="translate(-133.000000, -1359.000000)" fill="#FFFFFF" id="mark_sea">
            <g transform="translate(133.000000, 1359.000000)">
                <path d="M69.6781034,0 C95.4460345,0 113.374138,15.8338462 115.753448,17.8846154 C116.217595,18.4049047 116.877351,18.7074272 117.573621,18.7192308 C119.172535,18.3071184 120.590508,17.3764638 121.606552,16.0723077 C126.293793,10.9692308 130.195862,7.83346154 138,10.1942308 C131.361724,19.995 134.871207,25.4796154 130.576552,31.7511538 C126.281897,38.0226923 111.839483,36.6515385 105.986379,52.1276923 C104.57069,55.8715385 98.5748276,45.8561538 99.36,39.1911538 C100.145172,32.5261538 103.262069,30.9642308 104.035345,26.66 C104.808621,22.3557692 92.5194828,12.5430769 69.6781034,12.5430769 C43.5294828,12.5430769 36.1060345,35.2803846 36.1060345,41.5519231 L45.4805172,41.5519231 C46.0039655,34.7557692 52.7374138,18.6 69.6781034,17.6342308 C85.8217241,16.7280769 87.8441379,24.6807692 90.3781034,23.8938462 C92.912069,23.1069231 94.2801724,22.5346154 96.2312069,23.1307692 C97.4905062,23.652714 98.4298895,24.7400546 98.7651724,26.0638462 C98.7651724,26.0638462 94.4705172,29.5930769 93.3046552,33.5157692 C92.1387931,37.4384615 89.592931,44.8784615 89.592931,44.8784615 L85.6908621,43.3165385 C85.6908621,43.3165385 86.8448276,32.9315385 86.8448276,31.2861538 C86.9084948,30.2287937 86.4775673,29.2019573 85.6789655,28.5080769 C75.8881034,20.5196154 59.3281034,29.3188462 59.3281034,41.5519231 L68.1196552,41.5519231 C68.1196552,41.5519231 70.4632759,33.9092308 75.5431034,33.9092308 C76.1600516,34.9523933 76.9530354,35.8802761 77.8867241,36.6515385 C77.8867241,36.6515385 73.7824138,40.9676923 73.7824138,46.4523077 C73.7237778,49.9017072 75.4118476,53.1462581 78.2674138,55.0726923 C78.2674138,55.0726923 75.4836207,57.9580769 74.3653448,58.9953846 C73.592069,59.7107692 68.2981034,55.5376923 67.9055172,51.5434615 L59.3281034,51.5434615 C59.3281034,51.5434615 62.8613793,64.48 74.757931,64.6826923 C77.1270067,64.7929009 79.5005828,64.6086787 81.8244828,64.1342308 C83.0177239,63.7546751 83.8301054,62.646602 83.835,61.3919231 C83.9301724,60.1757692 84.2037931,54.2857692 84.2037931,54.2857692 L88.427069,54.2857692 C88.3900733,57.0582144 89.4410415,59.7343108 91.3536207,61.7376923 C94.4705172,64.6826923 100.728103,65.2669231 100.728103,65.2669231 C100.728103,65.2669231 102.08431,70.7515385 98.5748276,71.3357692 C96.9925862,71.61 93.3046552,72.5161538 89.7951724,70.3580769 C85.6908621,72.9096154 83.145,75.0676923 74.175,75.0676923 C60.8032759,75.0676923 46.6582759,67.1626923 45.7065517,51.9369231 L36.8674138,51.9369231 C37.8667241,61.7376923 44.1718966,80.9457692 74.175,80.9457692 C111.839483,80.9457692 133.907586,101.656154 133.907586,129.162692 C133.907586,169.081154 104.427931,186 76.9112069,186 C49.3944828,186 31.4306897,170.321154 24.602069,160.329615 C23.6146552,162.094231 21.6636207,163.262692 18.5467241,165.027308 C18.5467241,165.027308 12.6936207,166.589231 10.7306897,169.140769 C8.76775862,171.692308 8.77965517,178.548077 8.77965517,178.548077 C8.77965517,178.548077 0.773275862,179.335 0,166.982692 C0.0875752279,163.515977 1.24738439,160.162113 3.31913793,157.384615 C5.66275862,154.046154 10.7306897,153.271154 14.4424138,146.606154 C18.1541379,139.941154 13.6691379,138.57 20.4977586,129.746923 C22.4487931,127.588846 23.8168966,125.836154 27.9093103,125.836154 L52.6065517,125.836154 L56.8774138,111.91 C56.8774138,111.91 52.3210345,104.851538 46.8486207,103.289615 C46.0634483,101.525 49.1922414,98.9734615 50.9410345,97.2088462 C52.6898276,95.4442308 51.987931,99.5696154 67.5367241,99.5696154 C73.1994828,99.4384615 85.6908621,100.869231 85.6908621,106.031923 C85.6908621,107.212308 82.562069,108.380769 83.145,110.538846 C83.145,110.538846 77.2443103,108.833846 75.8762069,112.160385 L82.3717241,125.836154 L88.6174138,125.836154 C94.4110345,125.836154 95.4460345,119.159231 92.1268966,116.023462 C98.3131034,111.325769 105.593793,119.433462 105.593793,125.836154 C105.773986,129.461175 103.888624,132.875329 100.728103,134.647308 C97.527931,136.411923 92.9953448,136.113846 87.2731034,136.113846 C87.2731034,136.113846 93.495,147.142692 94.1493103,147.071154 C95.1551185,146.910769 96.125331,146.575885 97.0163793,146.081538 C98.562931,145.235 99.8358621,149.586923 99.8358621,149.586923 C98.1248702,153.827502 94.8357133,157.235158 90.6636207,159.089615 C86.3696358,161.131142 81.6098556,161.987261 76.8755172,161.569615 C76.8755172,161.569615 75.2932759,157.587308 75.6977586,157.384615 C77.5060345,156.478462 80.5158621,154.618462 80.4087931,153.795769 C79.8496552,149.336538 73.1637931,136.113846 73.1637931,136.113846 L61.4813793,136.113846 C61.4813793,136.113846 57.7577586,147.130769 56.8060345,149.741923 C56.445131,150.798855 56.1706052,151.883456 55.9851724,152.985 C55.9851724,152.985 56.925,154.272692 57.3889655,155 C58.7242938,156.624701 60.3862701,157.949121 62.2665517,158.886923 C63.3134483,159.542692 62.1356897,163.143462 60.957931,163.930385 C60.957931,163.930385 56.1517241,164.371538 48.0858621,159.149231 C40.02,153.926923 37.4860345,149.217308 37.4860345,149.217308 C38.6664738,148.178999 39.7569324,147.042234 40.7456897,145.819231 C40.9836207,145.354231 41.982931,146.081538 43.1487931,146.343846 C43.6243517,146.55474 44.1396639,146.660473 44.6596552,146.653846 C45.992069,146.236538 49.4301724,136.113846 49.4301724,136.113846 L35.297069,136.113846 C32.5394583,137.707872 30.859523,140.673706 30.9072414,143.863846 C31.1689655,149.086154 38.1998276,157.945 45.4805172,162.773846 C52.7612069,167.602692 61.8739655,169.856154 71.5101724,169.856154 C99.8715517,169.856154 111.423103,147.381154 111.423103,129.162692 C111.423103,114.008462 94.8631034,94.5261538 74.3653448,94.5261538 C37.152931,94.5261538 10.932931,80.6834615 10.932931,46.8457692 C10.932931,20.3884615 39.8177586,0 69.6781034,0 Z M63.0517241,125.836154 L71.2365517,125.836154 L66.5612069,115.141154 L63.0517241,125.836154 Z" id="mark_sea.svg"></path>
            </g>
        </g>
    </g>
</svg>