<?xml version="1.0" encoding="UTF-8"?>
<svg width="104px" height="111px" viewBox="0 0 104 111" version="1.1" xmlns="http://www.w3.org/2000/svg" xmlns:xlink="http://www.w3.org/1999/xlink">
    <!-- Generator: Sketch 45.2 (43514) - http://www.bohemiancoding.com/sketch -->
    <title>SEA logo</title>
    <desc>Created with Sketch.</desc>
    <defs>
        <path d="M21.832,36.642 C21.838,58.845 22.225,83.702 51.528,92.326 C80.831,83.702 81.219,58.845 81.225,36.642 C72.731,36.106 55.446,28.62 51.531,26.249 C47.595,28.647 30.467,36.117 21.832,36.642 Z" id="path-1"></path>
    </defs>
    <g id="Page-1" stroke="none" stroke-width="1" fill="none" fill-rule="evenodd">
        <g id="Desktop-Members" transform="translate(-1106.000000, -697.000000)">
            <g id="SEA-logo" transform="translate(1106.000000, 694.000000)">
                <g id="Group-7" transform="translate(45.314120, 58.280167) scale(-1, 1) rotate(-330.000000) translate(-45.314120, -58.280167) translate(39.314120, -4.719833)" fill="#D6CFAA">
                    <path d="M7.61707719,32.5958362 L7.61707719,32.7351293 L7.88554718,32.7351293 L7.88554718,33.5816268 L7.61707719,33.5816268 L7.61707719,33.7207643 L7.88554718,33.7207643 L7.88554718,34.5672619 L5.96594786,34.5672619 L5.96594786,34.1440131 L5.96594786,32.1726652 L5.96594786,31.7494942 L7.88554718,31.7494942 L7.88554718,32.5958362 L7.61707719,32.5958362 Z M5.14046101,31.7494942 L5.96594786,31.7494942 L5.96594786,34.5672619 L5.14046101,34.5672619 L4.04650417,34.5672619 L4.04650417,33.7207643 L4.31497416,33.7207643 L4.31497416,33.5816268 L4.04650417,33.5816268 L4.04650417,32.7351293 L4.31497416,32.7351293 L4.31497416,32.5958362 L4.04650417,32.5958362 L4.04650417,31.7494942 L5.14046101,31.7494942 Z" id="Combined-Shape"></path>
                    <path d="M4.35777372,117.352667 L4.35777372,34.706555 L6.00874742,34.706555 L6.00874742,117.352667 L4.35777372,117.352667 Z M6.00874742,117.352667 L6.00874742,34.706555 L7.65987676,34.706555 L7.65987676,117.352667 L6.00874742,117.352667 Z" id="Combined-Shape"></path>
                    <path d="M7.61707719,123.266944 L7.61707719,123.406238 L7.88554718,123.406238 L7.88554718,124.252735 L7.61707719,124.252735 L7.61707719,124.391873 L7.88554718,124.391873 L7.88554718,125.23837 L5.96594786,125.23837 L5.96594786,124.815121 L5.96594786,122.843774 L5.96594786,122.420603 L7.88554718,122.420603 L7.88554718,123.266944 L7.61707719,123.266944 Z M7.61707719,118.195118 L7.61707719,118.334412 L7.88554718,118.334412 L7.88554718,119.180753 L7.61707719,119.180753 L7.61707719,119.320047 L7.88554718,119.320047 L7.88554718,120.166544 L5.96594786,120.166544 L5.96594786,119.743295 L5.96594786,117.77187 L5.96594786,117.348621 L7.88554718,117.348621 L7.88554718,118.195118 L7.61707719,118.195118 Z M5.14046101,122.420603 L5.96594786,122.420603 L5.96594786,125.23837 L5.14046101,125.23837 L4.04650417,125.23837 L4.04650417,124.391873 L4.31497416,124.391873 L4.31497416,124.252735 L4.04650417,124.252735 L4.04650417,123.406238 L4.31497416,123.406238 L4.31497416,123.266944 L4.04650417,123.266944 L4.04650417,122.420603 L5.14046101,122.420603 Z M5.14046101,117.348621 L5.96594786,117.348621 L5.96594786,120.166544 L5.14046101,120.166544 L4.04650417,120.166544 L4.04650417,119.320047 L4.31497416,119.320047 L4.31497416,119.180753 L4.04650417,119.180753 L4.04650417,118.334412 L4.31497416,118.334412 L4.31497416,118.195118 L4.04650417,118.195118 L4.04650417,117.348621 L5.14046101,117.348621 Z M4.31497416,122.420603 L4.31497416,120.166544 L5.96594786,120.166544 L5.96594786,122.420603 L4.31497416,122.420603 Z M5.96594786,122.420603 L5.96594786,120.166544 L7.61707719,120.166544 L7.61707719,122.420603 L5.96594786,122.420603 Z" id="Combined-Shape"></path>
                    <path d="M4.51371976,31.8617069 L3.41400444,24.5243054 L0,20.4832485 L5.99193886,0 L5.99193886,31.8617069 L4.51371976,31.8617069 Z M7.47015796,31.8617069 L5.99193886,31.8617069 L5.99193886,0 L11.9838777,20.4832485 L8.56987329,24.5243054 L7.47015796,31.8617069 Z" id="Combined-Shape"></path>
                </g>
                <g id="Group-7" transform="translate(58.513140, 57.876588) rotate(-330.000000) translate(-58.513140, -57.876588) translate(53.013140, -4.623412)" fill="#D6CFAA">
                    <path d="M6.91448161,32.4443111 L6.91448161,32.5829567 L7.15818806,32.5829567 L7.15818806,33.4255192 L6.91448161,33.4255192 L6.91448161,33.5640099 L7.15818806,33.5640099 L7.15818806,34.4065724 L5.41565166,34.4065724 L5.41565166,33.9852912 L5.41565166,32.0231073 L5.41565166,31.6019035 L7.15818806,31.6019035 L7.15818806,32.4443111 L6.91448161,32.4443111 Z M4.66630733,31.6019035 L5.41565166,31.6019035 L5.41565166,34.4065724 L4.66630733,34.4065724 L3.67325655,34.4065724 L3.67325655,33.5640099 L3.91696299,33.5640099 L3.91696299,33.4255192 L3.67325655,33.4255192 L3.67325655,32.5829567 L3.91696299,32.5829567 L3.91696299,32.4443111 L3.67325655,32.4443111 L3.67325655,31.6019035 L4.66630733,31.6019035 Z" id="Combined-Shape"></path>
                    <path d="M3.95581474,116.807142 L3.95581474,34.545218 L5.45450341,34.545218 L5.45450341,116.807142 L3.95581474,116.807142 Z M5.45450341,116.807142 L5.45450341,34.545218 L6.95333336,34.545218 L6.95333336,116.807142 L5.45450341,116.807142 Z" id="Combined-Shape"></path>
                    <path d="M6.91448161,122.693926 L6.91448161,122.832571 L7.15818806,122.832571 L7.15818806,123.675134 L6.91448161,123.675134 L6.91448161,123.813624 L7.15818806,123.813624 L7.15818806,124.656187 L5.41565166,124.656187 L5.41565166,124.234906 L5.41565166,122.272722 L5.41565166,121.851518 L7.15818806,121.851518 L7.15818806,122.693926 L6.91448161,122.693926 Z M6.91448161,117.645676 L6.91448161,117.784322 L7.15818806,117.784322 L7.15818806,118.62673 L6.91448161,118.62673 L6.91448161,118.765375 L7.15818806,118.765375 L7.15818806,119.607938 L5.41565166,119.607938 L5.41565166,119.186656 L5.41565166,117.224395 L5.41565166,116.803114 L7.15818806,116.803114 L7.15818806,117.645676 L6.91448161,117.645676 Z M4.66630733,121.851518 L5.41565166,121.851518 L5.41565166,124.656187 L4.66630733,124.656187 L3.67325655,124.656187 L3.67325655,123.813624 L3.91696299,123.813624 L3.91696299,123.675134 L3.67325655,123.675134 L3.67325655,122.832571 L3.91696299,122.832571 L3.91696299,122.693926 L3.67325655,122.693926 L3.67325655,121.851518 L4.66630733,121.851518 Z M4.66630733,116.803114 L5.41565166,116.803114 L5.41565166,119.607938 L4.66630733,119.607938 L3.67325655,119.607938 L3.67325655,118.765375 L3.91696299,118.765375 L3.91696299,118.62673 L3.67325655,118.62673 L3.67325655,117.784322 L3.91696299,117.784322 L3.91696299,117.645676 L3.67325655,117.645676 L3.67325655,116.803114 L4.66630733,116.803114 Z M3.91696299,121.851518 L3.91696299,119.607938 L5.41565166,119.607938 L5.41565166,121.851518 L3.91696299,121.851518 Z M5.41565166,121.851518 L5.41565166,119.607938 L6.91448161,119.607938 L6.91448161,121.851518 L5.41565166,121.851518 Z" id="Combined-Shape"></path>
                    <path d="M4.0973764,31.7135945 L3.09909829,24.4103017 L0,20.38803 L5.43924527,0 L5.43924527,31.7135945 L4.0973764,31.7135945 Z M6.78111414,31.7135945 L5.43924527,31.7135945 L5.43924527,0 L10.8784905,20.38803 L7.77939225,24.4103017 L6.78111414,31.7135945 Z" id="Combined-Shape"></path>
                </g>
                <g id="Fill-63" stroke-width="3">
                    <use stroke="#D6CFAA" fill="#FFFFFF" fill-rule="evenodd" xlink:href="#path-1"></use>
                    <path stroke="#FFFFFF" d="M21.7409695,35.1447647 C28.6349753,34.7256156 44.9501823,28.5018869 50.7505634,24.9680165 L51.5286741,24.4939542 L52.3080385,24.9659524 C58.0508407,28.4439049 74.5334334,34.7167561 81.3194672,35.1449776 L82.7253806,35.2336955 L82.7249999,36.6424054 C82.7205076,53.2662745 81.9940927,61.464503 78.7680437,70.1010068 C74.4336867,81.7045782 65.9466556,89.6461395 51.9514967,93.7649755 L51.528,93.8896124 L51.1045033,93.7649755 C37.1093569,89.6461432 28.6225315,81.7045953 24.2884448,70.1009761 C21.0626636,61.4646152 20.3364927,53.2675881 20.3320001,36.6424054 L20.3316185,35.230452 L21.7409695,35.1447647 Z"></path>
                </g>
                <path d="M73.8441729,85.2477785 C73.8693755,85.2663574 73.8952244,85.2844516 73.9210733,85.3025458 C73.8945782,85.2844516 73.8687293,85.2663574 73.8436882,85.2477785 C73.8693755,85.2663574 73.8952244,85.2844516 73.9210733,85.3025458 C73.9352902,85.3128853 73.9482146,85.3232249 73.9624315,85.332272 C74.9718302,86.0146824 76.8768925,86.3041898 78.8711335,86.6040368 C81.3720125,86.980138 83.9569003,87.3691636 83.9569003,88.5672591 C83.9569003,88.6008627 83.9504381,88.6344662 83.9426834,88.6693622 C83.8354106,89.1010385 83.0586518,89.5495165 81.7907643,89.9191555 C79.9231828,90.4387179 77.0979004,90.770876 74.3398251,90.829036 C74.147251,90.8329133 73.9533844,90.8354982 73.7582254,90.8354982 L73.7582254,85.1823485 C73.7621027,85.1862258 73.7672725,85.1875183 73.7711498,85.1901032 C73.7944138,85.2101361 73.8189702,85.2291996 73.8441729,85.2477785 Z M77.0759289,85.8725136 C75.253583,85.5377706 73.76598,85.0750757 73.76598,84.1147898 C73.7918289,82.3984243 77.6058309,81 82.270261,81 C85.4186544,81 86.5934859,81.3838558 89.0142333,81.7211837 C91.0136441,82.0003516 92.7403491,82.2407462 94.379168,82.2407462 C97.7059187,82.2407462 100.099525,81.8698148 101.915408,81.0762542 C102.177775,80.9612267 102.384566,81.0853013 102.441433,81.1253671 C102.560338,81.2119608 102.657271,81.3683465 102.564215,81.5492887 L100.137006,86.1090308 C99.8849791,86.5846502 100.042657,87.128769 100.528616,87.4673893 L102.929977,89.1359344 C103.0799,89.2961975 103.144523,89.492649 103.113504,89.6916853 C103.083778,89.8920141 102.957118,90.0703714 102.760667,90.1931536 C100.849142,91.3783246 98.3443859,91.8836702 94.379168,91.8836702 C91.9984863,91.8836702 86.7886449,90.8303284 84.4997267,90.7075462 L84.4997267,88.5672591 C84.4997267,88.4703258 84.4880947,88.3759774 84.4674156,88.2880912 C84.148182,86.956874 81.5193511,86.5600937 78.9706517,86.1775303 C78.3308919,86.0818895 77.6872549,85.9849562 77.0810987,85.873806 C77.0785138,85.8725136 77.0772213,85.8725136 77.0759289,85.8725136 Z M24.1503506,86.1775303 C21.6029436,86.5600937 18.9728203,86.956874 18.6548791,88.2880912 C18.6329075,88.3759774 18.6212755,88.4703258 18.6212755,88.5672591 L18.6212755,90.7062538 C16.3414045,90.829036 11.3137976,91.8836702 8.7431267,91.8836702 C4.77790877,91.8836702 2.27186002,91.3783246 0.361627914,90.1931536 C0.163883995,90.0703714 0.0385169349,89.8920141 0.007498281,89.6916853 C-0.0235203729,89.492649 0.0423942667,89.2961975 0.192317761,89.1359344 L2.59238611,87.4673893 C3.07834502,87.128769 3.23602318,86.5846502 2.98399662,86.1090308 L0.556786945,81.5492887 C0.465023427,81.3683465 0.560664276,81.2119608 0.68086156,81.1266595 C0.737729093,81.0853013 0.943227675,80.9612267 1.20559379,81.0762542 C3.02147749,81.8698148 5.41637606,82.2407462 8.7431267,82.2407462 C10.3806531,82.2407462 12.1073582,82.0003516 14.1067689,81.7211837 C16.5288088,81.3838558 17.7023479,81 20.8507413,81 C25.5164638,81 29.3317583,82.3984243 29.3563147,84.132884 C29.3563147,84.2052609 29.3446827,84.272468 29.3278809,84.3396751 C29.3240036,84.3564768 29.3188338,84.3719862 29.3149565,84.3874955 C29.2981547,84.4391933 29.2761832,84.4895986 29.2503343,84.5400039 C29.2412872,84.5542208 29.2322401,84.5710225 29.223193,84.5865319 C29.1895894,84.642107 29.1495237,84.6963896 29.1029957,84.7480874 C29.0991183,84.7519647 29.095241,84.7571345 29.0900712,84.7610118 C28.7527434,85.1216036 28.1220307,85.3839698 27.3349324,85.5920532 C27.3284702,85.5933457 27.3245929,85.5946381 27.3181306,85.597223 C27.1966409,85.6282417 27.0699814,85.6592603 26.9420295,85.6889865 C26.9239352,85.6928639 26.9045486,85.6967412 26.8864544,85.701911 C26.768842,85.7277598 26.6473522,85.7549012 26.5232776,85.7794576 C26.5000136,85.7846274 26.4754572,85.7885047 26.4521932,85.7936745 C26.3307035,85.8195234 26.2066289,85.8427873 26.0812618,85.8660513 C26.0579978,85.8699287 26.0347338,85.8750984 26.0114698,85.8789758 C25.8757632,85.9022398 25.7400566,85.9267962 25.6030576,85.9500602 C25.5914256,85.9513526 25.5797936,85.9539375 25.5681616,85.95523 C25.1054667,86.034069 24.62597,86.1051535 24.1503506,86.1775303 Z M24.2498688,86.6040368 C26.387571,86.2822183 28.4244626,85.9746166 29.3640694,85.1797636 L29.3640694,90.8354982 C29.1133352,90.8342057 28.865186,90.8329133 28.6196217,90.8277435 C28.5963577,90.8264511 28.5743861,90.8264511 28.5524146,90.8251586 C26.1420067,90.7682911 23.8957391,90.5188494 22.1354305,90.1104372 C20.2743113,89.6774684 19.1653944,89.1010385 19.1653944,88.5672591 C19.1653944,87.3691636 21.7502823,86.980138 24.2498688,86.6040368 Z M83.9569003,98.6457368 C83.9569003,98.8576976 83.7940524,99.0283002 83.6428364,99.1562521 C83.0224633,99.6809843 82.1099979,99.9110394 81.3435787,100.106198 C80.0136539,100.446111 78.6449558,100.629638 77.2788426,100.742081 C75.5676468,100.880372 73.8525738,100.817043 72.1400856,100.934655 C70.5038516,101.04839 68.8792496,101.290077 67.2727418,101.61448 C64.1127164,102.25424 61.0328226,103.215818 57.877967,103.873672 C54.5318297,104.572885 51.1688906,104.809402 47.78398,104.261406 C44.4921254,103.730211 41.2984965,102.72986 38.0505849,101.994459 C34.8117205,101.264228 31.5987049,100.906221 28.2822938,100.857108 C26.7029273,100.833844 25.120976,100.720109 23.5609962,100.469375 C22.4727584,100.294895 21.3573793,100.07001 20.3363486,99.6396261 C19.9046723,99.4573915 19.2326015,99.1795161 19.1653944,98.6457368 C19.1201589,98.2799751 19.1653944,97.8819024 19.1653944,97.5161408 C19.1653944,94.8239801 19.1653944,92.1318194 19.1653944,89.4396588 C19.7986919,89.9191555 20.6103467,90.1685971 21.3677189,90.3740957 C22.3732402,90.6493863 23.4071954,90.8225737 24.4411505,90.954403 C25.5591145,91.0991567 26.6835407,91.1883354 27.8118442,91.2335709 C28.9840908,91.2813913 30.1576299,91.2464954 31.3272917,91.3679851 C36.0072311,91.8487742 40.5269074,93.4165087 45.1435171,94.2721066 C47.4815481,94.7063677 49.8544752,94.9971676 52.2377417,94.9390076 C54.5460466,94.8821401 56.8323799,94.5202558 59.0812323,94.0123253 C63.4845887,93.0171435 67.797474,91.5036917 72.3455842,91.2981931 C74.4690695,91.2025523 76.578338,91.2361558 78.6953611,90.9712048 C79.6724487,90.8484226 80.6508288,90.6855747 81.6046524,90.4322557 C82.4111374,90.21771 83.2848295,89.9566363 83.9569003,89.4422436 C83.9569003,89.9682683 83.9569003,90.494293 83.9569003,91.0203177 C83.9569003,93.5625548 83.9569003,96.1034996 83.9569003,98.6457368 Z" id="Combined-Shape" fill="#D6CFAA"></path>
                <path d="M61.9970664,44.8824035 C63.550704,44.369211 64.2607374,43.0194444 64.4856985,42.4921918 C65.4769333,40.1441604 67.6210938,40.3480314 67.6210938,40.3480314 C65.8354651,39.8067188 64.9356207,40.5237823 63.8600255,41.704828 C63.6280343,42.0071195 63.3046528,42.2180205 62.932061,42.316441 C62.7703702,42.316441 62.6227394,42.2461406 62.5172889,42.1266301 C61.9689463,41.6556178 57.8634063,38 51.9581776,38 C45.1109243,38 39.0440048,42.4640717 39.0440048,48.5591113 C39.0440048,56.3624493 44.4993113,59.793106 53.0337728,59.793106 C57.7298357,59.793106 61.5260541,64.2852978 61.5260541,67.7792248 C61.5260541,71.9761552 58.8757312,77.1643204 52.3729496,77.1643204 C50.1655189,77.1643204 48.0775987,76.6440979 46.4044506,75.5333525 C44.7383325,74.4226071 43.1214246,72.3768671 43.0651844,71.1747313 C43.0511243,70.4365777 43.4377762,69.7546644 44.0704792,69.3891026 L47.311325,69.3891026 C47.311325,69.3891026 46.5239612,71.723074 46.2146397,71.8214944 C46.0951291,71.8214944 45.9756185,71.8004043 45.870168,71.7511941 C45.6030267,71.6879238 45.3710356,71.526233 45.3218253,71.6316835 C45.0968642,71.9128849 44.843783,72.1729962 44.5766417,72.4120173 C44.5766417,72.4120173 45.1601345,73.4946426 47.0090335,74.7038085 C48.8579325,75.9059443 49.9616479,75.8075238 49.9616479,75.8075238 C50.2287892,75.6247429 50.5029605,74.7951989 50.2639394,74.6475682 C49.8351073,74.4296371 49.4484554,74.1273457 49.1461639,73.7547538 C49.0407134,73.586033 48.8227823,73.2907716 48.8227823,73.2907716 C48.8649626,73.0376904 48.9282329,72.7846091 49.0125933,72.545588 C49.2305243,71.941005 50.0811585,69.4031627 50.0811585,69.4031627 L50.2779994,68.7493695 L50.3623598,69.4031627 L52.7666315,69.4031627 C52.7666315,69.4031627 54.299179,72.4541975 54.4257196,73.4805825 C54.4468097,73.6703934 53.7578663,74.0992255 53.3430943,74.3101265 C53.2517039,74.3593368 53.6102356,75.2732412 53.6102356,75.2732412 C54.6928609,75.3716617 55.7895462,75.1748208 56.773751,74.7038085 C57.7298357,74.2749764 58.4820493,73.4876126 58.8757312,72.5104378 C58.8757312,72.5104378 58.5804698,71.5051429 58.2289681,71.7019839 C58.0250971,71.8144644 57.800136,71.8917948 57.5751749,71.926945 C57.4275442,71.941005 56.0004472,69.4031627 56.0004472,69.4031627 C57.3150636,69.4031627 58.3484787,69.473463 59.0866323,69.065721 C59.8107258,68.6579791 60.2465879,67.8706152 60.2044077,67.0340412 C60.2044077,66.2677674 59.7544855,65.4030732 59.1288125,64.8898807 C59.7333954,65.965476 59.8739961,67.3714828 58.62265,68.3416275 C58.2922384,68.5947088 57.1955531,68.7563995 56.5276998,68.7704596 C54.2077885,68.8056098 51.4520151,68.7282794 50.7208916,68.7423395 C50.2428493,68.7493695 53.0900131,68.6157989 53.884407,68.6087688 C56.2816486,68.5876787 57.2377333,68.6017388 58.1867879,68.1729067 C59.6841852,67.4980234 59.6771551,65.8108152 58.3625387,64.5032289 C57.9547967,64.4048084 57.5259647,64.4680787 57.1182227,64.7774002 C57.8774664,65.5014937 57.6384452,67.0410712 56.3167988,67.0410712 L54.8826718,67.0410712 L53.3923046,63.8845859 C53.7086561,63.1183121 55.0584227,63.511994 55.0584227,63.511994 C55.0021824,63.294063 55.1076329,63.1183121 55.2412036,62.9706814 C54.6436507,62.5418493 53.3993346,62.1481674 52.5346404,62.0356869 C51.3957749,61.8810261 50.2217591,61.9091463 49.0969537,61.6771551 C48.4361305,61.5435845 47.7823373,61.2764432 47.2058745,60.9038514 C46.8895229,61.2272329 46.6223816,61.5717046 46.7348622,61.8388459 C47.9862083,62.1973777 49.0336834,63.8283456 49.0336834,63.8283456 L48.0565086,67.0410712 L42.3973311,67.0410712 C41.4623366,67.0410712 41.145985,67.4417832 40.6960628,67.9409156 C39.1283652,69.9725955 40.1617802,70.288947 39.3111461,71.8285245 C38.460512,73.368102 37.3005563,73.5438528 36.7592437,74.3101265 C36.2812014,74.9498597 36.0210901,75.7231634 36,76.5245873 C36.1335706,78.6125075 37.1529256,79.0694597 37.6872082,79.1678802 C37.3849167,78.5281471 36.9490546,77.1713505 37.7364184,75.7020733 C38.4183318,74.4296371 38.7557734,75.4068119 39.8173086,74.1765559 C40.2391106,74.1765559 41.0475645,73.7125736 41.0475645,73.7125736 C41.0475645,73.7125736 40.8366635,74.1343757 40.1969304,74.7319286 C39.5571973,75.3294815 38.2285208,75.2802713 37.7364184,76.2152658 C37.1318355,77.3681914 37.4763072,78.5773573 37.7223584,79.1819402 C37.8981092,79.2100604 38.0105898,79.1960003 38.0105898,79.1960003 C38.0105898,79.1960003 38.0105898,77.6142426 38.460512,77.0237197 C38.9104342,76.4331969 40.2531707,76.0746651 40.2531707,76.0746651 C40.9702342,75.6669231 41.4131263,75.3997818 41.6380874,74.9920399 C43.205785,77.2978911 47.318355,80.9113286 53.6313257,80.9113286 C59.9442964,80.9113286 66.7001593,77.0096597 66.7001593,67.8073449 C66.7001593,61.4662541 61.6385347,56.6928609 53.0056527,56.6928609 C46.5380212,56.6928609 44.8719031,52.7771319 44.5063414,50.4291004 L43.7892779,49.4238055 C43.6346171,49.3675653 43.8947284,49.2129045 44.1337495,49.2129045 C46.6012915,49.2129045 49.0688335,49.2129045 51.5293455,49.2129045 C52.0073878,49.2129045 51.6699462,49.4448956 51.3676547,49.4448956 C48.9282329,49.4448956 46.495841,49.4448956 44.0564192,49.4448956 L44.843783,50.0002683 L46.4677209,50.0002683 C46.685652,53.5082554 49.9264977,55.3360643 52.9915926,55.3360643 C54.9529722,55.3360643 55.5786452,54.8861421 56.4433394,54.3307694 C52.3167093,56.0109476 47.4589557,54.5276104 46.8543728,50.1478991 C46.8051625,50.0002683 47.1918144,49.8877878 47.2410247,50.1127489 C48.3869202,54.9986227 53.9547073,54.858022 55.9863872,53.5996458 C55.5716152,52.9599127 55.2974438,52.2076991 55.2412036,51.4343953 C55.2271435,51.7577769 55.2060534,52.0670984 55.1990234,52.186609 C55.1990234,52.4748404 55.0092124,52.7279216 54.7350411,52.8193121 C54.2007585,52.9317926 53.6594459,52.9739728 53.1181332,52.9458527 C51.0513032,52.9107025 50.0881885,51.1953742 49.7437168,50.3588001 L47.9018479,49.9159079 L49.582026,49.9159079 L51.5504356,49.9159079 C51.6418261,50.8368424 52.8509919,51.7999571 53.0337728,51.6312363 C53.1111032,51.5609359 53.2165537,51.4554854 53.3290343,51.3430049 C51.8035168,50.2744397 51.1075435,47.863138 53.4415148,46.2392001 L53.5329052,46.1759298 C53.4485448,46.0704792 53.3712145,45.9650287 53.3009141,45.8455181 C52.1339284,45.8455181 51.5996458,47.6100567 51.5996458,47.6100567 L49.582026,47.6100567 L47.9159079,47.6100567 L49.6101462,47.2796451 C49.8913475,44.6363523 53.4696349,42.8296335 55.6208254,44.6012021 C55.8036063,44.7628929 55.9020268,44.994884 55.8879667,45.2409352 C55.8879667,45.2690553 55.8879667,45.3112355 55.8809367,45.3604458 C56.1340179,44.6644724 56.4784896,44.0177093 56.9213817,43.4623366 C56.8440513,43.4834267 56.780781,43.5045168 56.6893906,43.5326369 C56.1058978,43.7154178 55.6419155,41.8805789 51.9441175,42.0914799 C48.0635387,42.316441 46.5169311,46.0423591 46.3974206,47.6030267 L44.2602902,47.6030267 L41.8630485,48.6012915 L44.2884103,47.2234048 C44.5344615,45.409656 46.3974206,40.9174642 51.9511476,40.9174642 C57.188523,40.9174642 60.0075667,43.1811352 59.8247858,44.17237 C59.656065,45.1354847 58.9390015,45.5010465 58.7632507,47.0335939 C58.61562,48.3200902 59.5506145,50.1478991 60.0497469,50.1971093 C59.9794466,49.9651182 59.9161763,49.7401571 59.8810261,49.5503462 C59.7333954,48.7137721 59.1147524,45.8314581 61.9970664,44.8824035 Z M57.5540848,72.6018282 C57.6243851,72.3838972 58.2992684,72.4612276 58.2570882,72.6018282 C57.8352862,73.9023846 55.6981558,74.4858774 54.5944404,74.8022289 C54.3835394,74.8654992 53.8000465,74.6827184 54.2359087,74.5632078 C55.2201135,74.2820064 57.2096131,73.6633634 57.5540848,72.6018282 Z M53.891437,69.6843641 C54.5663203,70.9708603 55.2341735,72.2503265 55.9090568,73.5368228 C55.9863872,73.6844535 55.332594,73.6422733 55.2341735,73.4524624 C54.5592902,72.1659661 53.891437,70.8864999 53.2165537,69.6000036 C53.1321933,69.4523729 53.7930165,69.4945531 53.891437,69.6843641 Z M51.9300575,64.531349 C52.4362199,65.5717941 53.279824,67.4347531 53.279824,67.4347531 L52.8439619,67.3996029 C52.8439619,67.3996029 51.9862977,65.4804036 51.4731052,64.4399586 L50.7841619,63.3643633 C50.7841619,63.3643633 51.7261865,63.8775558 51.9300575,64.531349 Z M51.1919039,64.4469886 L52.2815592,66.991861 L52.6893011,67.8917053 L52.0003578,67.2590023 L50.2920595,67.2590023 L51.1919039,64.4469886 Z M49.2586445,43.2936157 C51.3887448,41.8102785 54.2851189,42.0352396 56.0285674,43.4834267 C56.3730391,43.7716581 56.1340179,43.8068082 56.0004472,43.6380874 C55.0443626,42.4781318 50.5240506,41.9227591 48.7806021,44.4113912 C47.8456076,45.7400676 47.8245175,46.5414915 47.6065864,47.3710356 C47.5573762,47.5678765 46.7489223,47.673327 46.7840724,47.4764861 C47.0090335,46.1618697 47.7682772,44.3340608 49.2586445,43.2936157 Z M49.5890561,74.816289 C50.0530383,74.9568897 49.6242062,75.1185805 49.3430049,75.0342201 C47.8666977,74.5913279 46.0177987,73.6774235 45.3991557,72.130816 C45.3288554,71.9550651 45.9967086,72.0253654 46.074039,72.2151764 C46.6294117,73.6071231 48.2603796,74.4155771 49.5890561,74.816289 Z M49.7155967,63.0761319 L49.2797346,63.0550418 C49.3430049,62.8441408 50.0249182,62.9777114 49.975708,63.1394022 C48.9985332,66.3169777 48.0775987,69.262562 47.100424,72.4401375 C47.0371537,72.6510385 46.8754629,72.3909272 46.9246731,72.2292364 C47.9018479,69.0446309 48.7384219,66.2537074 49.7155967,63.0761319 Z M50.5521708,39.8348389 C45.870168,40.5589324 42.0809796,44.3340608 41.8630485,48.3903905 C41.6732376,51.9686779 43.5502567,56.0179776 47.2621148,56.8475216 C51.0583332,57.6911257 55.0865428,57.4942848 58.3625387,58.8159312 C61.6104145,60.1164875 63.1007818,61.9653865 63.972506,65.3960432 C64.8372002,68.8126398 64.5981791,72.756489 62.2220275,75.5192924 C57.5189346,80.9956891 48.548611,80.7074577 43.7119475,75.5403825 C42.4395113,74.1835859 40.928054,71.4489026 41.5045168,69.4383129 C42.2637605,66.7668999 45.8490779,67.9127954 47.8526376,67.9127954 C45.9404683,67.9127954 42.4465413,67.1816719 41.8771086,69.5086132 C41.6240273,70.5490583 41.9966192,72.2081463 42.4465413,73.1220508 C44.6258519,77.5369122 50.2920595,79.9411839 55.0865428,79.1257 C59.1358425,78.4367566 62.8055203,75.3576016 63.5225838,71.2309716 C64.1271668,67.7792248 63.2835627,63.097222 60.2957981,60.8476111 C57.3783339,58.6472104 54.8475216,58.9495019 50.9528827,58.358979 C46.6645619,57.7122158 43.5080765,56.8264315 41.9895891,53.9159974 C39.0510348,48.28494 42.2075202,42.8788437 47.2621148,40.4042717 C51.9370875,38.1124805 59.7685456,40.4042717 61.511994,42.9772642 L61.4346637,43.0405345 C59.8810261,40.9596444 54.2288786,39.2654062 50.5521708,39.8348389 Z" id="Shape" fill="#DDD6B2"></path>
            </g>
        </g>
    </g>
</svg>